<?xml version="1.0" encoding="UTF-8" standalone="no"?><!DOCTYPE svg PUBLIC "-//W3C//DTD SVG 1.1//EN" "http://www.w3.org/Graphics/SVG/1.1/DTD/svg11.dtd"><svg width="100%" height="100%" viewBox="0 0 4500 6746" version="1.1" xmlns="http://www.w3.org/2000/svg" xmlns:xlink="http://www.w3.org/1999/xlink" xml:space="preserve" xmlns:serif="http://www.serif.com/" style="fill-rule:evenodd;clip-rule:evenodd;stroke-linecap:round;stroke-linejoin:round;stroke-miterlimit:1.5;"><path d="M1858.33,2529.17c58.66,-12.24 100.352,11.825 138.605,24.651c9.44,3.006 19.461,3.709 29.228,2.051c112.272,-18.879 193.751,-16.364 261.291,-0.645c7.963,1.932 15.048,6.479 20.121,12.913c35.656,44.526 80.057,84.423 82.672,141.69c0.743,17.71 11.903,33.298 28.429,39.709c40.845,13.696 43.563,37.863 27.154,67.131l-5.782,49.15" style="fill:none;stroke:#000;stroke-width:1.45px;"/><path d="M2434.91,2909.5c-0,-0 -0.224,1.899 -0.583,4.949c-1.311,11.143 2.205,22.316 9.661,30.701c7.456,8.384 18.141,13.181 29.362,13.181c0.003,0 0.006,0 0.009,0c0.968,-0.001 1.823,-0.629 2.113,-1.553c9.132,-31.42 24.731,-25.063 45.359,-23.447" style="fill:none;stroke:#000;stroke-width:1.45px;"/><path d="M2175,3033.33c113.428,108.307 112.772,188.786 58.333,287.5" style="fill:none;stroke:#000;stroke-width:1.45px;"/><path d="M1962.5,3029.17c-69.043,93.368 -72.133,177.591 -16.667,270.833" style="fill:none;stroke:#000;stroke-width:1.45px;"/><path d="M2216.67,3216.67c-84.552,1.218 -167.421,0.754 -245.834,-4.167c-26.653,-21.66 -12.5,-25 4.167,-29.167c6.644,-3.576 16.291,-5.261 32.96,-10.919c3.105,-1.039 6.361,-1.557 9.635,-1.533c74.836,0.635 147.993,9.684 219.905,24.952c-12.314,19.475 -17.73,22.851 -20.833,20.834Z" style="fill:#fff;stroke:#000;stroke-width:4.17px;"/><path d="M2529.17,2904.17l-166.667,-70.834c-96.062,-26.476 -171.914,-33.672 -250,-12.5c-25,1.601 -54.167,10.451 -79.167,0c-73.563,-11.302 -145.444,-20.999 -225,-8.333c-3.933,56.73 -1.237,110.808 18.924,157.9c3.648,8.352 10.869,14.613 19.653,17.039c110.953,30.791 166.505,-18.13 203.09,-124.939l45.833,-0c3.939,57.26 14.255,98.313 41.667,120.833c13.393,11.003 35.663,16.382 53.99,19.386c29.122,4.774 64.196,-0.428 104.343,-15.219c41.632,-24.473 42.545,-55.687 54.167,-104.167l112.5,33.334c78.659,23.203 93.507,3.872 66.667,-12.5Z" style="fill:none;stroke:#000;stroke-width:4.17px;"/><path d="M2112.53,2870.52c3.399,49.401 12.299,84.819 35.948,104.249c11.555,9.492 30.768,14.133 46.58,16.725c25.125,4.119 55.385,-0.37 90.022,-13.13c35.917,-21.114 36.705,-48.044 46.732,-89.87c0,-0 4.044,-16.174 7.179,-28.714c2.018,-8.065 -2.852,-16.246 -10.903,-18.316c-76.11,-19.598 -137.791,-24.079 -201.179,-6.892c-9.115,7.66 -14.907,18.644 -14.379,35.948Z" style="stroke:#000;stroke-width:4.17px;"/><path d="M2016.67,2833.33c-59.941,-9.209 -119.207,-19.137 -183.444,-10.949c-6.452,0.855 -11.378,6.186 -11.722,12.685c-2.243,43.871 0.779,85.641 15.964,122.547c3.669,8.748 11.191,15.298 20.361,17.728c93.954,25.116 141.259,-17.087 172.503,-108.305c2.251,-23.878 -0.924,-31.306 -13.662,-33.706Z" style="stroke:#000;stroke-width:4.17px;"/><path d="M2095.83,2879.17c-3.679,20.187 -7.806,55.836 30.618,112.713c1.694,2.505 3.888,4.632 6.444,6.248c12.115,7.557 18.378,17.672 18.669,31.542c0.305,16.56 -12.402,30.464 -28.923,31.647c-22.591,1.559 -44.612,1.014 -58.912,13.945c-21.004,18.993 -40.682,1.517 -72.272,-11.243c-12.321,-4.872 -19.896,-17.348 -18.534,-30.527c1.626,-16.795 9.88,-33.588 27.046,-50.381c2.847,-2.778 5.213,-6.009 7.002,-9.561c25.349,-49.954 35.639,-80.267 38.862,-102.717" style="fill:none;stroke:#000;stroke-width:4.17px;"/><path d="M2529.37,2903.87c61.779,-230.51 -13.868,-395.96 -187.705,-499.7c-31.041,-10.446 -195.986,-70.649 -225,-79.167c-22.599,-6.635 4.451,26.407 -16.667,20.833c-60.78,-16.043 -74.624,-21.009 -95.833,-25c-49.747,-9.36 83.432,43.643 45.833,45.834c-16.54,0.963 -94.155,-31.856 -107.977,-28.309c-10.991,2.821 54.623,36.234 45.477,40.809c-17.199,8.603 -94.065,-23.685 -104.167,-8.334c-8.038,12.217 -90.441,-1.295 -79.166,25c2.608,6.083 97.966,60.623 100,66.667c3.608,10.724 -11.662,7.363 -12.5,16.667c-1.843,20.437 -38.037,23.455 -33.334,45.833c-49.519,120.258 -58.615,218.058 -54.166,308.333c4.217,61.322 7.059,122.012 12.5,183.334c6.176,69.621 14.795,139.771 22.767,209.483c1.789,15.737 5.935,31.115 12.299,45.619c32.268,70.456 91.654,142.87 123.267,178.231c112.923,126.311 228.545,42.219 404.223,-125.847c13.609,-13.001 24.17,-28.853 30.926,-46.418c17.72,-46.028 52.351,-136.068 52.351,-136.068c46.201,95.855 179.243,-196.1 58.333,-208.334c0.07,-0.224 -1.128,-0.315 0,-4.166" style="fill:none;stroke:#000;stroke-width:4.17px;"/><path d="M1933.33,3195.83c17.561,-14.729 34.931,-31.551 55.605,-33.086c99.447,-7.386 203.742,12.006 248.562,33.086c-90.189,131.601 -190.01,150.028 -304.167,0Z" style="fill:none;stroke:#000;stroke-width:4.17px;"/></svg>