<?xml version="1.0" encoding="UTF-8" standalone="no"?><!DOCTYPE svg PUBLIC "-//W3C//DTD SVG 1.1//EN" "http://www.w3.org/Graphics/SVG/1.1/DTD/svg11.dtd"><svg width="100%" height="100%" viewBox="0 0 10055 15575" version="1.1" xmlns="http://www.w3.org/2000/svg" xmlns:xlink="http://www.w3.org/1999/xlink" xml:space="preserve" xmlns:serif="http://www.serif.com/" style="fill-rule:evenodd;clip-rule:evenodd;stroke-linecap:round;stroke-linejoin:round;stroke-miterlimit:1.5;"><path d="M9288.21,8003.46l52.617,9.575c0,0 -53.85,-5.362 -52.617,-9.575c0,0 100.909,17.95 100.442,19.425c1574.36,159.288 -106.346,3978.04 -707.925,2729.92c0,0 -450.921,1172.41 -681.65,1771.72c-87.971,228.712 -225.488,435.121 -402.675,604.408c-2287.48,2188.35 -3792.98,3283.3 -5263.33,1638.63c-411.63,-460.437 -1184.88,-1403.32 -1605.03,-2320.71c-82.866,-188.854 -136.841,-389.079 -160.137,-593.996c-103.804,-907.708 -216.025,-1821.13 -296.459,-2727.65c-67.291,-758.646 -104.062,-1509.86 -154.67,-2267.78c-2.659,-39.775 -5.35,-79.567 -8.092,-119.375c-5.363,-108.959 123.717,-210.659 121.875,-312.813c-18.125,-999.754 11.771,-1725.99 596.787,-3146.7c5149.42,-1354.33 8104.17,-501.787 8460.88,4724.92l-0.005,0.012Z" style="fill:#f2d3e1;stroke:#000;stroke-width:54.33px;"/><path d="M1700.45,11405.6c230.842,-189.133 459.538,-405.554 728.933,-422.429c1295.9,-81.208 2650.92,186.95 3231.31,468.146c-1194.04,1699.88 -2496.46,1924.78 -3960.24,-45.717Z" style="fill:#513132;stroke:#000;stroke-width:54.33px;"/><path d="M8246.54,7704c-0,0 4.287,27.242 -0.384,66.946c-17.083,145.104 28.7,290.575 125.784,399.758c97.083,109.167 236.212,171.629 382.325,171.629l0.104,0c12.604,-0.016 23.75,-8.191 27.516,-20.225c118.905,-409.112 324.534,-322.308 593.126,-301.266c-75.001,-89.255 -661.721,-208.942 -1128.47,-316.842Z" style="fill:#512b18;stroke:#000;stroke-width:57.83px;"/><path d="M4869.46,9318.88c1476.91,1410.25 1468.38,2458.15 759.55,3743.49" style="fill:none;stroke:#000;stroke-width:18.92px;"/><path d="M2102.53,9264.63c-898.991,1215.73 -939.233,2312.38 -217.012,3526.47" style="fill:none;stroke:#000;stroke-width:18.92px;"/><path d="M5386.29,11719.4c-1101.05,3.158 -2179.93,-15.359 -3200.12,-91.2c-343.788,-286.017 -158.992,-327.379 58.633,-379.121c87.042,-45.579 212.896,-66.054 430.78,-137.225c40.57,-13.058 83.041,-19.321 125.675,-18.5c974.266,19.512 1925.39,148.329 2859.41,357.925c-163.263,251.708 -234.288,294.85 -274.379,268.121Z" style="fill:#fff;stroke:#000;stroke-width:54.33px;"/><path d="M2948.25,12572.1c472.733,69.717 1056.93,69.359 1485.63,17.15c-388.6,247.809 -958.037,313.167 -1485.63,-17.15Z" style="fill:#fff;stroke:#000;stroke-width:57.83px;stroke-linejoin:bevel;"/><path id="eyebrow-right" class="dupa" d="M4928.38,6373.71c0,0 150.833,-128.408 167.321,-127.066c55.341,4.504 102.608,37.416 184.591,22.475c170.83,-31.13 131.788,-82.463 350.609,-90.013c74.516,-2.567 151.641,95.813 170.191,96.025c67.463,0.779 63.309,-30.158 178.838,0.146c133.267,34.958 263.633,107.842 385.029,170.3c82.4,42.396 261.175,34.104 318.571,92.837c15.371,15.734 140.558,171.605 101.754,209.525c-22.304,21.792 -472.341,-38.654 -515.004,-82.312c-36.979,-37.842 -50.454,-63.029 -109.492,-93.408c-73.833,-37.984 -265.225,-3.059 -350.095,-4.042c-159.463,-1.837 -964.871,75.275 -1032.06,6.517c-38.571,-39.471 149.521,-181.375 149.75,-200.984Z" fill="#512b18" stroke="#000" stroke-width="26.04px"/><path id="eyrbrowleft" d="M2128.28,6400.71c0,0 -149.341,-130.141 -165.845,-128.991c-55.388,3.866 -103.034,36.229 -184.838,20.346c-170.458,-33.1 -130.825,-83.98 -349.546,-94.055c-74.483,-3.429 -152.737,94.055 -171.287,94.055c-67.471,-0 -62.959,-30.888 -178.829,-1.917c-133.663,33.417 -264.859,104.787 -386.971,165.842c-82.884,41.441 -255.192,-94.921 -313.263,-36.855c-15.55,15.555 -130.5,164.338 -92.133,202.7c22.05,22.05 454.367,98.446 497.533,55.284c37.409,-37.413 51.175,-62.446 110.563,-92.138c74.262,-37.133 265.241,0 350.112,0c159.479,0 963.942,86.409 1031.92,18.425c39.025,-39.021 -147.417,-183.087 -147.417,-202.696Z" style="fill:#512b18;stroke:#000;stroke-width:26.04px;"/><path d="M9481,7637.04l-2170.14,-922.313c-1250.82,-344.737 -2238.47,-438.437 -3255.21,-162.758c-325.521,20.833 -705.292,136.075 -1030.81,-0c-957.867,-147.171 -1893.82,-273.421 -2929.69,-108.508c-51.229,738.679 -16.108,1442.81 246.408,2055.99c47.484,108.75 141.509,190.275 255.884,221.854c1444.71,400.942 2168.04,-236.058 2644.41,-1626.8l596.788,0c51.283,745.575 185.608,1280.12 542.533,1573.35c174.375,143.267 464.358,213.3 702.987,252.417c379.184,62.166 835.905,-5.575 1358.65,-198.163c542.067,-318.662 553.959,-725.087 705.296,-1356.34l1464.84,434.029c1024.2,302.117 1217.54,50.417 868.058,-162.758Z" style="fill:#4d4d4d;stroke:#000;stroke-width:54.33px;"/><path d="M4123.68,7247.5c41.859,608.558 151.496,1044.86 442.833,1284.22c142.325,116.925 379.009,174.096 573.801,206.025c309.495,50.746 682.275,-4.55 1108.96,-161.754c442.45,-260.088 452.154,-591.842 575.679,-1107.08c-0,0 47.654,-190.608 85.883,-343.508c26.284,-105.087 -37.237,-211.683 -142.187,-238.542c-932.796,-239.116 -1689.88,-293.125 -2467.85,-82.187c-112.292,94.358 -183.629,229.671 -177.121,442.829Z" style="fill:url(#_Radial1);stroke:#000;stroke-width:54.33px;"/><path d="M2751.89,6798.75c-759.167,-199.742 -1496.53,-328.158 -2282.4,-147.987c-75.954,17.866 -131.042,83.683 -135.242,161.6c-28.629,542.325 7.5,1058.96 192.846,1515.88c47.637,115.329 146.617,201.65 267.362,233.162c1157.05,304.979 1740.78,-218.212 2126.73,-1345.02c27.883,-295.866 -11.458,-387.916 -169.304,-417.637Z" style="fill:url(#_Radial2);stroke:#000;stroke-width:54.33px;"/><path d="M3838.65,7311.5c-47.917,262.863 -137.571,663.175 362.741,1403.77c22.05,32.621 90.846,118.55 119.83,145.208c157.741,145.092 136.804,253.171 140.587,410.346c3.979,215.641 -58.992,397.012 -274.096,412.412c-294.166,20.313 -539.041,76.634 -767.083,181.579c-285.117,131.217 -480.467,-52.829 -885.904,-159.962c-160.417,-63.438 -260.779,-227.708 -243.054,-399.308c21.162,-218.696 75.225,-421.942 298.75,-640.609c37.066,-36.162 67.862,-78.229 91.162,-124.496c330.071,-650.433 464.046,-1045.14 506.025,-1337.44" style="fill:none;stroke:#000;stroke-width:26.04px;"/><path d="M541.875,3096.39c-48.717,-71.667 -52.467,-162.621 0.658,-275.209c70.959,-150.362 -144.458,-375.275 -54.25,-434.025c124.442,-81.041 650.813,-82.416 705.292,-271.271l-13.35,-12.708c10.921,-121.146 209.742,-77.375 162.763,-217.012c-26.48,-78.696 -1268.13,-788.855 -1302.08,-868.055c-146.808,-342.395 926.146,-166.441 1030.81,-325.52c131.529,-199.896 1132.38,220.52 1356.34,108.504c119.084,-59.563 -735.275,-494.634 -592.15,-531.371c179.984,-46.179 1190.59,381.162 1405.95,368.612c489.567,-28.525 -1244.55,-718.662 -596.787,-596.787c276.162,51.962 456.421,116.629 1247.83,325.521c274.962,72.566 -77.258,-357.659 217.012,-271.267c377.78,110.917 2525.51,894.808 2929.69,1030.81c1061.15,633.266 1841.3,1443.13 2287.83,2434.08c472.396,1048.4 666.496,1436.35 329.688,2895.47l-217.013,1139.32l-680.729,-271.27l-187.325,-108.505l-217.017,-54.254c0,0 24.167,-392.275 35.246,-573.7c3.679,-59.704 -1.146,-119.633 -14.325,-178c-67.758,-308.562 -111.858,-581.458 -421.733,-762.45c-170.729,-101.196 -278.004,-282.516 -284.517,-480.883c-26.458,-734.967 -622.221,-1172.19 -1105.03,-1748.46c-63.958,-77.813 -228.054,-137.359 -325.521,-162.759c-902.988,-235.8 -1915.95,-400.175 -3462.85,-125.312c-14.412,2.571 -28.75,5.521 -42.987,8.871c-770.834,180.366 -1584.18,330.087 -1973.77,170.695c-46.146,379.775 -136.267,705.296 -325.521,1085.07l107.846,-1298.14Z" style="fill:#512b18;stroke:#000;stroke-width:54.33px;"/><path d="M6447.96,11354.2c30.513,485.804 -38.341,828.596 -180.596,1237.58" style="fill:none;stroke:#000;stroke-width:6.04px;"/><defs><radialGradient id="_Radial1" cx="0" cy="0" r="1" gradientUnits="userSpaceOnUse" gradientTransform="matrix(2834.53,0,0,2082.83,3906.25,7269.96)"><stop offset="0" style="stop-color:#fff;stop-opacity:0.47"/><stop offset="0.03" style="stop-color:#a3a3a3;stop-opacity:0.66"/><stop offset="0.07" style="stop-color:#565656;stop-opacity:0.82"/><stop offset="0.2" style="stop-color:#3a3a3a;stop-opacity:0.88"/><stop offset="0.58" style="stop-color:#0e0e0e;stop-opacity:0.97"/><stop offset="1" style="stop-color:#000;stop-opacity:1"/></radialGradient><radialGradient id="_Radial2" cx="0" cy="0" r="1" gradientUnits="userSpaceOnUse" gradientTransform="matrix(2604.17,0,0,2082.12,538.196,6944.46)"><stop offset="0" style="stop-color:#373737;stop-opacity:0.89"/><stop offset="0.52" style="stop-color:#0f0f0f;stop-opacity:0.97"/><stop offset="1" style="stop-color:#000;stop-opacity:1"/></radialGradient></defs></svg>