<?xml version="1.0" encoding="UTF-8" standalone="no"?><!DOCTYPE svg PUBLIC "-//W3C//DTD SVG 1.1//EN" "http://www.w3.org/Graphics/SVG/1.1/DTD/svg11.dtd"><svg width="100%" height="100%" viewBox="0 0 9934 18230" version="1.1" xmlns="http://www.w3.org/2000/svg" xmlns:xlink="http://www.w3.org/1999/xlink" xml:space="preserve" xmlns:serif="http://www.serif.com/" style="fill-rule:evenodd;clip-rule:evenodd;stroke-linecap:round;stroke-linejoin:round;stroke-miterlimit:1.5;"><path d="M7702.21,12641l-51.925,1661.63c343.471,1462.78 -527.483,2047.15 -1262.54,2851.2c-1720.47,1881.95 -6424.54,257.137 -5851.38,-3318.52c40.417,-252.121 335.729,-303.579 467.346,-571.2l-0,-571.179l6698.46,-51.929l0.033,-0Z" style="fill:#f2d3e1;stroke:#000;stroke-width:50.71px;"/><path d="M9148.67,7883.25l51.841,9.429c0,0 -53.058,-5.279 -51.841,-9.429c-0,0 99.391,17.692 98.941,19.133c1550.7,156.909 -104.758,3918.28 -697.291,2688.91c-0,-0.001 -444.15,1154.79 -671.409,1745.09c-86.646,225.279 -222.1,428.596 -396.612,595.329c-2253.13,2155.47 -3736.01,3233.98 -5184.25,1614.01c-405.45,-453.509 -1167.08,-1382.22 -1580.92,-2285.83c-81.613,-186.025 -134.775,-383.246 -157.725,-585.071c-102.238,-894.079 -212.779,-1793.77 -292.013,-2686.68c-66.266,-747.242 -102.5,-1487.17 -152.345,-2233.7c-2.621,-39.167 -5.259,-78.367 -7.967,-117.566c-5.279,-107.33 121.858,-207.501 120.05,-308.126c-17.863,-984.725 11.6,-1700.05 587.812,-3099.41c5072.04,-1333.98 7982.38,-494.25 8333.75,4653.92l-0.02,0.008Z" style="fill:#f2d3e1;stroke:#000;stroke-width:53.46px;"/><path id="mouth" d="M1674.93,11234.3c227.379,-186.304 452.642,-399.462 717.988,-416.096c1276.42,-79.983 2611.1,184.15 3182.76,461.113c-1176.11,1674.34 -2458.96,1895.87 -3900.75,-45.017Z" style="fill:#513132;stroke:#000;stroke-width:53.46px;"/><path d="M8122.67,7588.29c-0,-0.004 4.216,26.82 -0.384,65.933c-16.825,142.921 28.263,286.2 123.888,393.75c95.625,107.521 232.675,169.046 376.579,169.046l0.104,-0c12.413,-0.017 23.404,-8.071 27.121,-19.913c117.117,-402.966 319.65,-317.462 584.2,-296.754c-73.871,-87.896 -651.771,-205.796 -1111.51,-312.066l0.004,0.004Z" style="fill:#512b18;stroke:#000;stroke-width:56.96px;"/><path id="cheek-right-small" d="M6351.13,11183.6c30.05,478.504 -37.762,816.142 -177.883,1218.99" style="fill:none;stroke:#000;stroke-width:18.92px;"/><path id="cheek-right" d="M4796.33,9178.92c1454.7,1389.04 1446.32,2421.2 748.125,3687.24" style="fill:none;stroke:#000;stroke-width:18.58px;"/><path id="cheek-left" d="M2070.97,9125.46c-885.467,1197.46 -925.121,2277.62 -213.75,3473.49" style="fill:none;stroke:#000;stroke-width:18.58px;"/><path id="teeth-top" d="M5305.42,11543.3c-1084.51,3.109 -2147.19,-15.12 -3152.03,-89.825c-338.629,-281.72 -156.616,-322.466 57.742,-373.437c85.746,-44.879 209.704,-65.054 424.304,-135.158c39.967,-12.863 81.809,-19.025 123.788,-18.209c959.633,19.2 1896.48,146.092 2816.46,352.534c-160.816,247.933 -230.783,290.416 -270.262,264.095Z" style="fill:#fff;stroke:#000;stroke-width:53.46px;"/><path id="teeth-bottom" d="M2903.99,12383.2c465.625,68.663 1041.04,68.317 1463.3,16.892c-382.759,244.079 -943.646,308.454 -1463.3,-16.892Z" style="fill:#fff;stroke:#000;stroke-width:56.96px;stroke-linejoin:bevel;"/><path id="eyebrow-right" d="M4854.33,6277.96c0,0 148.575,-126.479 164.809,-125.158c54.512,4.429 101.075,36.858 181.82,22.138c168.267,-30.663 129.813,-81.217 345.334,-88.667c73.4,-2.517 149.375,94.375 167.637,94.583c66.459,0.767 62.363,-29.704 176.146,0.159c131.267,34.425 259.671,106.212 379.254,167.725c81.163,41.77 257.238,33.591 313.784,91.458c15.137,15.487 138.437,169.008 100.225,206.371c-21.979,21.458 -465.242,-38.071 -507.275,-81.075c-36.421,-37.275 -49.688,-62.084 -107.846,-92.017c-72.725,-37.412 -261.233,-3 -344.825,-3.975c-157.067,-1.804 -950.384,74.15 -1016.56,6.425c-37.987,-38.887 147.275,-178.646 147.5,-197.971l0,0.004Z" style="fill:#512b18;stroke:#000;stroke-width:81.42px;"/><path id="eyebrow-left" d="M2096.34,6304.58c-0.001,0 -147.084,-128.179 -163.351,-127.05c-54.55,3.805 -101.479,35.68 -182.066,20.038c-167.884,-32.604 -128.854,-82.713 -344.288,-92.642c-73.37,-3.383 -150.433,92.642 -168.716,92.642c-66.459,-0 -62.013,-30.421 -176.146,-1.896c-131.65,32.917 -260.867,103.212 -381.146,163.354c-81.633,40.833 -251.354,-93.492 -308.558,-36.287c-15.313,15.312 -128.542,161.858 -90.746,199.654c21.716,21.716 447.533,96.962 490.05,54.446c36.858,-36.859 50.416,-61.513 108.908,-90.75c73.142,-36.58 261.25,-0 344.858,-0c157.067,-0 949.446,85.104 1016.41,18.145c38.437,-38.437 -145.209,-180.333 -145.209,-199.654Z" style="fill:#512b18;stroke:#000;stroke-width:81.42px;"/><path id="glasses" d="M9338.58,7522.33l-2137.52,-908.454c-1232.03,-339.567 -2204.84,-431.858 -3206.3,-160.312c-320.625,20.52 -694.688,134.029 -1015.33,-0c-943.475,-144.967 -1865.37,-269.321 -2885.66,-106.875c-50.467,727.57 -15.867,1421.13 242.708,2025.09c46.771,107.117 139.375,187.413 252.034,218.525c1423,394.913 2135.47,-232.517 2604.67,-1602.36l587.829,-0c50.521,734.375 182.812,1260.89 534.375,1549.7c171.754,141.112 457.379,210.104 692.429,248.629c373.492,61.233 823.333,-5.483 1338.23,-195.192c533.925,-313.871 545.642,-714.183 694.704,-1335.95l1442.83,427.517c1008.8,297.571 1199.24,49.654 855,-160.313Z" style="fill:#4d4d4d;"/><clipPath id="_clip1"><path id="glasses1" serif:id="glasses" d="M9338.58,7522.33l-2137.52,-908.454c-1232.03,-339.567 -2204.84,-431.858 -3206.3,-160.312c-320.625,20.52 -694.688,134.029 -1015.33,-0c-943.475,-144.967 -1865.37,-269.321 -2885.66,-106.875c-50.467,727.57 -15.867,1421.13 242.708,2025.09c46.771,107.117 139.375,187.413 252.034,218.525c1423,394.913 2135.47,-232.517 2604.67,-1602.36l587.829,-0c50.521,734.375 182.812,1260.89 534.375,1549.7c171.754,141.112 457.379,210.104 692.429,248.629c373.492,61.233 823.333,-5.483 1338.23,-195.192c533.925,-313.871 545.642,-714.183 694.704,-1335.95l1442.83,427.517c1008.8,297.571 1199.24,49.654 855,-160.313Z"/></clipPath><g clip-path="url(#_clip1)"><path d="M4061.75,7138.67c41.234,599.412 149.217,1029.15 436.179,1264.91c140.192,115.175 373.317,171.479 565.175,202.938c304.842,49.979 672.03,-4.479 1092.31,-159.325c435.8,-256.179 445.346,-582.95 567.012,-1090.45c0,-0 46.946,-187.746 84.6,-338.35c25.888,-103.509 -36.683,-208.492 -140.05,-234.95c-918.783,-235.521 -1664.48,-288.734 -2430.76,-80.954c-110.609,92.933 -180.871,226.216 -174.463,436.179Z" style="fill:url(#_Radial2);stroke:#000;stroke-width:53.46px;"/><path d="M2710.58,6696.63c-747.746,-196.737 -1474.03,-323.229 -2248.09,-145.767c-74.808,17.605 -129.079,82.434 -133.212,159.167c-28.196,534.188 7.379,1043.06 189.946,1493.11c46.929,113.596 144.412,198.63 263.354,229.655c1139.65,300.4 1714.62,-214.93 2094.78,-1324.79c27.462,-291.425 -11.288,-382.1 -166.771,-411.371Z" style="fill:url(#_Radial3);stroke:#000;stroke-width:53.46px;"/></g><path id="glasses2" serif:id="glasses" d="M9338.58,7522.33l-2137.52,-908.454c-1232.03,-339.567 -2204.84,-431.858 -3206.3,-160.312c-320.625,20.52 -694.688,134.029 -1015.33,-0c-943.475,-144.967 -1865.37,-269.321 -2885.66,-106.875c-50.467,727.57 -15.867,1421.13 242.708,2025.09c46.771,107.117 139.375,187.413 252.034,218.525c1423,394.913 2135.47,-232.517 2604.67,-1602.36l587.829,-0c50.521,734.375 182.812,1260.89 534.375,1549.7c171.754,141.112 457.379,210.104 692.429,248.629c373.492,61.233 823.333,-5.483 1338.23,-195.192c533.925,-313.871 545.642,-714.183 694.704,-1335.95l1442.83,427.517c1008.8,297.571 1199.24,49.654 855,-160.313Z" style="fill:none;stroke:#000;stroke-width:53.46px;"/><path d="M3781.01,7201.67c-47.204,258.925 -135.504,653.212 357.292,1382.67c21.717,32.133 89.479,116.771 118.021,143.037c155.379,142.9 134.754,249.359 138.487,404.167c3.909,212.412 -58.108,391.058 -269.983,406.233c-289.754,20 -530.937,75.467 -755.554,178.838c-280.833,129.254 -473.246,-52.034 -872.604,-157.554c-158.004,-62.484 -256.859,-224.288 -239.392,-393.317c20.833,-215.396 74.096,-415.588 294.254,-630.971c36.509,-35.625 66.838,-77.05 89.792,-122.621c325.121,-640.658 457.083,-1029.45 498.421,-1317.36" style="fill:none;stroke:#000;stroke-width:25.71px;"/><path d="M533.767,3049.9c-47.984,-70.592 -51.667,-160.175 0.662,-271.058c69.875,-148.109 -142.292,-369.655 -53.437,-427.517c122.566,-79.829 641.021,-81.167 694.687,-267.188l-13.146,-12.516c10.746,-119.325 206.58,-76.217 160.313,-213.75c-26.075,-77.521 -1249.08,-777 -1282.52,-855.021c-144.6,-337.254 912.221,-163.938 1015.33,-320.625c129.55,-196.892 1115.37,217.208 1335.95,106.875c117.291,-58.663 -724.234,-487.204 -583.263,-523.384c177.275,-45.487 1172.71,375.434 1384.83,363.071c482.225,-28.087 -1225.83,-707.862 -587.813,-587.829c272.017,51.183 449.567,114.879 1229.08,320.642c270.833,71.479 -76.096,-352.292 213.75,-267.204c372.1,109.254 2487.55,881.37 2885.66,1015.33c1045.21,623.75 1813.65,1421.44 2253.45,2397.52c465.313,1032.64 656.492,1414.75 324.742,2851.96l-213.75,1122.19l-670.504,-267.188l-184.517,-106.875l-213.75,-53.438c0,0.001 23.804,-386.37 34.709,-565.066c3.629,-58.821 -1.13,-117.85 -14.101,-175.329c-66.733,-303.925 -110.17,-572.73 -415.399,-750.992c-168.159,-99.688 -273.834,-278.279 -280.242,-473.663c-26.058,-723.925 -612.863,-1154.58 -1088.42,-1722.19c-63,-76.65 -224.633,-135.296 -320.642,-160.313c-889.408,-232.258 -1887.15,-394.166 -3410.82,-123.437c-14.184,2.533 -28.317,5.45 -42.325,8.75c-759.254,177.654 -1560.38,325.121 -1944.11,168.125c-45.454,374.062 -134.221,694.704 -320.625,1068.77l106.213,-1278.65Z" style="fill:#512b18;stroke:#000;stroke-width:53.46px;"/><path d="M6979.17,2326.39c-822.096,-1064.31 -1667.87,-1806.65 -3107.64,-1944.44" style="fill:none;stroke:#000;stroke-width:17.38px;"/><path d="M4114.58,1996.53c-139.95,-245.208 -348.329,-460.004 -621.646,-645.937c-292.666,-199.092 -833.404,-399.813 -1270.72,-534.621" style="fill:none;stroke:#000;stroke-width:17.38px;"/><path d="M3107.64,642.363c1029.57,-63.367 2019.9,746.562 2465.28,1284.72" style="fill:none;stroke:#000;stroke-width:17.38px;"/><path d="M1319.45,1840.28c501.721,157.125 838.833,396.554 1024.3,711.804" style="fill:none;stroke:#000;stroke-width:17.38px;"/><defs><radialGradient id="_Radial2" cx="0" cy="0" r="1" gradientUnits="userSpaceOnUse" gradientTransform="matrix(2791.95,0,0,2051.53,3847.59,7160.75)"><stop offset="0" style="stop-color:#fff;stop-opacity:0.47"/><stop offset="0.03" style="stop-color:#a3a3a3;stop-opacity:0.66"/><stop offset="0.07" style="stop-color:#565656;stop-opacity:0.82"/><stop offset="0.2" style="stop-color:#3a3a3a;stop-opacity:0.88"/><stop offset="0.58" style="stop-color:#0e0e0e;stop-opacity:0.97"/><stop offset="1" style="stop-color:#000;stop-opacity:1"/></radialGradient><radialGradient id="_Radial3" cx="0" cy="0" r="1" gradientUnits="userSpaceOnUse" gradientTransform="matrix(2565.03,0,0,2050.83,530.146,6840.13)"><stop offset="0" style="stop-color:#373737;stop-opacity:0.89"/><stop offset="0.52" style="stop-color:#0f0f0f;stop-opacity:0.97"/><stop offset="1" style="stop-color:#000;stop-opacity:1"/></radialGradient></defs></svg>