<?xml version="1.0" encoding="UTF-8" standalone="no"?><!DOCTYPE svg PUBLIC "-//W3C//DTD SVG 1.1//EN" "http://www.w3.org/Graphics/SVG/1.1/DTD/svg11.dtd"><svg width="100%" height="100%" viewBox="0 0 1219 1219" version="1.1" xmlns="http://www.w3.org/2000/svg" xmlns:xlink="http://www.w3.org/1999/xlink" xml:space="preserve" xmlns:serif="http://www.serif.com/" style="fill-rule:evenodd;clip-rule:evenodd;stroke-linecap:round;stroke-linejoin:bevel;stroke-miterlimit:1.5;"><circle cx="609.086" cy="609.086" r="590.625" style="fill:url(#_Linear1);stroke:#000;stroke-width:36.92px;"/><path d="M874.385,615.714l0.004,0.004l0.031,-0.322c-0.11,-0.401 -0.119,-1.14 0.301,-2.573c-0,0 -0.178,1.37 -0.301,2.573c0.112,0.408 0.327,0.468 0.301,0.552c90.682,9.176 -9.1,228.142 -43.75,156.25c-0,0 -25.974,67.531 -39.263,102.051c-5.067,13.175 -12.988,25.064 -23.195,34.814c-131.758,126.049 -218.475,189.119 -303.167,94.385c-23.71,-26.521 -68.249,-80.831 -92.451,-133.673c-4.773,-10.878 -7.882,-22.411 -9.224,-34.214c-5.979,-52.284 -12.443,-104.896 -17.075,-157.113c-3.877,-43.698 -5.995,-86.968 -8.91,-130.624c-0.153,-2.29 -0.308,-4.582 -0.465,-6.876c-0.31,-6.276 7.126,-12.134 7.019,-18.018c-1.044,-57.585 0.678,-99.417 34.375,-181.25c296.608,-78.008 475.223,-27.024 495.77,274.034Zm0.002,0.029c-0.131,1.373 -0.15,2.3 0.334,0.205l-0.334,-0.205Z" style="fill:#f2d3e1;stroke:#000;stroke-width:3.13px;stroke-linejoin:round;"/><path d="M430.192,811.479c13.17,-11.047 26.198,-23.663 41.704,-24.815c74.584,-5.539 152.806,9.005 186.421,24.815c-67.642,98.7 -142.507,112.521 -228.125,0Z" style="fill:#513132;stroke:#000;stroke-width:3.13px;stroke-linejoin:round;"/><path d="M805.961,596.586c0,0 0.247,1.569 -0.022,3.856c-0.983,8.358 1.653,16.737 7.246,23.026c5.592,6.288 13.606,9.886 22.021,9.886c0.002,0 0.004,0 0.007,0c0.726,-0.001 1.367,-0.472 1.584,-1.165c6.849,-23.565 18.549,-18.797 34.02,-17.585c-4.32,-5.141 -37.971,-11.802 -64.856,-18.018Z" style="fill:#512b18;stroke:#000;stroke-width:3.33px;stroke-linejoin:round;"/><path d="M611.442,689.604c85.071,81.23 84.579,141.589 43.75,215.625" style="fill:none;stroke:#000;stroke-width:1.09px;stroke-linejoin:round;"/><path d="M452.067,686.479c-51.782,70.026 -54.1,133.194 -12.5,203.125" style="fill:none;stroke:#000;stroke-width:1.09px;stroke-linejoin:round;"/><path d="M642.692,827.104c-63.414,0.914 -125.566,0.566 -184.375,-3.125c-19.99,-16.245 -9.375,-18.75 3.125,-21.875c4.983,-2.682 12.218,-3.946 24.72,-8.189c2.329,-0.78 4.771,-1.168 7.227,-1.15c56.127,0.476 110.994,7.263 164.928,18.714c-9.236,14.606 -13.297,17.138 -15.625,15.625Z" style="fill:#fff;stroke:#000;stroke-width:3.13px;stroke-linejoin:round;"/><path d="M502.836,877.836c27.275,3.701 60.922,3.292 85.578,0c-22.217,14.532 -54.97,18.674 -85.578,0Z" style="fill:#fff;stroke:#000;stroke-width:3.33px;"/><path d="M877.067,592.729l-125,-53.125c-72.047,-19.857 -128.935,-25.254 -187.5,-9.375c-18.75,1.2 -40.625,7.838 -59.375,0c-55.173,-8.477 -109.084,-15.749 -168.75,-6.25c-2.95,42.548 -0.928,83.106 14.193,118.425c2.735,6.264 8.151,10.96 14.74,12.779c83.214,23.094 124.878,-13.597 152.317,-93.704l34.375,0c2.954,42.945 10.691,73.735 31.25,90.625c10.044,8.252 26.747,12.286 40.492,14.539c21.842,3.581 48.148,-0.321 78.258,-11.414c31.223,-18.354 31.908,-41.765 40.625,-78.125l84.375,25c58.995,17.403 70.13,2.904 50,-9.375Z" style="fill:#4d4d4d;stroke:#000;stroke-width:3.13px;stroke-linejoin:round;"/><path d="M568.485,570.293c2.411,35.053 8.726,60.185 25.507,73.971c8.199,6.735 21.832,10.028 33.051,11.867c17.828,2.923 39.299,-0.262 63.876,-9.316c25.486,-14.982 26.044,-34.09 33.159,-63.768c0,-0 2.745,-10.98 4.947,-19.787c1.515,-6.053 -2.145,-12.193 -8.189,-13.74c-53.729,-13.773 -97.338,-16.884 -142.148,-4.734c-6.468,5.435 -10.578,13.229 -10.203,25.507Z" style="fill:url(#_Radial2);stroke:#000;stroke-width:3.13px;stroke-linejoin:round;"/><path d="M489.471,544.444c-43.728,-11.505 -86.201,-18.901 -131.467,-8.523c-4.375,1.028 -7.547,4.819 -7.789,9.307c-1.65,31.238 0.431,60.996 11.107,87.315c2.744,6.644 8.445,11.615 15.4,13.43c66.646,17.567 100.269,-12.569 122.5,-77.473c1.606,-17.042 -0.66,-22.344 -9.751,-24.056Z" style="fill:url(#_Radial3);stroke:#000;stroke-width:3.13px;stroke-linejoin:round;"/><path d="M552.067,573.979c-2.76,15.141 -5.855,41.877 22.963,84.535c1.27,1.879 2.916,3.474 4.833,4.686c9.086,5.668 13.784,13.254 14.002,23.656c0.229,12.421 -9.301,22.848 -21.692,23.736c-16.943,1.17 -33.459,0.761 -44.184,10.459c-15.754,14.245 -30.512,1.137 -54.204,-8.433c-9.241,-3.654 -14.922,-13.01 -13.901,-22.895c1.219,-12.596 7.41,-25.191 20.285,-37.785c2.135,-2.084 3.909,-4.507 5.251,-7.171c19.012,-37.466 26.729,-60.201 29.147,-77.038" style="fill:none;stroke:#000;stroke-width:3.13px;stroke-linejoin:round;"/><path d="M362.173,331.188c-2.806,-4.128 -3.022,-9.367 0.038,-15.852c4.087,-8.661 -8.321,-21.616 -3.125,-25c7.168,-4.667 37.487,-4.747 40.625,-15.625l-0.769,-0.732c0.629,-6.978 12.081,-4.457 9.375,-12.5c-1.525,-4.533 -73.044,-45.438 -75,-50c-8.456,-19.721 53.346,-9.587 59.375,-18.75c7.576,-11.514 65.226,12.702 78.125,6.25c6.859,-3.431 -42.351,-28.491 -34.108,-30.606c10.367,-2.661 68.578,21.954 80.983,21.231c28.199,-1.643 -71.685,-41.395 -34.375,-34.375c15.907,2.993 26.29,6.718 71.875,18.75c15.838,4.181 -4.449,-20.601 12.5,-15.625c21.76,6.389 145.47,51.541 168.75,59.375c61.123,36.476 106.06,83.124 131.779,140.203c27.211,60.388 38.39,82.735 18.99,166.779l-12.5,65.625l-39.21,-15.625l-10.79,-6.25l-12.5,-3.125c0,0 1.392,-22.595 2.03,-33.045c0.212,-3.439 -0.066,-6.891 -0.825,-10.252c-3.902,-17.773 -6.443,-33.493 -24.291,-43.918c-9.834,-5.829 -16.014,-16.273 -16.388,-27.699c-1.525,-42.334 -35.84,-67.518 -63.651,-100.711c-3.684,-4.481 -13.136,-7.912 -18.75,-9.375c-52.012,-13.582 -110.359,-23.049 -199.46,-7.217c-0.83,0.147 -1.655,0.318 -2.476,0.51c-44.4,10.389 -91.249,19.014 -113.689,9.832c-2.658,21.875 -7.849,40.625 -18.75,62.5l6.212,-74.773Z" style="fill:#512b18;stroke:#000;stroke-width:3.13px;stroke-linejoin:round;"/><defs><linearGradient id="_Linear1" x1="0" y1="0" x2="1" y2="0" gradientUnits="userSpaceOnUse" gradientTransform="matrix(1181.25,0,0,1181.25,18.4612,609.086)"><stop offset="0" style="stop-color:#fff;stop-opacity:1"/><stop offset="1" style="stop-color:#fff;stop-opacity:1"/></linearGradient><radialGradient id="_Radial2" cx="0" cy="0" r="1" gradientUnits="userSpaceOnUse" gradientTransform="matrix(163.269,0,0,119.971,555.961,571.586)"><stop offset="0" style="stop-color:#fff;stop-opacity:0.47"/><stop offset="0.47" style="stop-color:#3a3a3a;stop-opacity:0.88"/><stop offset="1" style="stop-color:#000;stop-opacity:1"/></radialGradient><radialGradient id="_Radial3" cx="0" cy="0" r="1" gradientUnits="userSpaceOnUse" gradientTransform="matrix(150,0,0,119.93,349.711,552.836)"><stop offset="0" style="stop-color:#fff;stop-opacity:0.47"/><stop offset="0.46" style="stop-color:#373737;stop-opacity:0.89"/><stop offset="1" style="stop-color:#000;stop-opacity:1"/></radialGradient></defs></svg>