<?xml version="1.0" encoding="UTF-8" standalone="no"?><!DOCTYPE svg PUBLIC "-//W3C//DTD SVG 1.1//EN" "http://www.w3.org/Graphics/SVG/1.1/DTD/svg11.dtd"><svg width="100%" height="100%" viewBox="0 0 115555 43844" version="1.1" xmlns="http://www.w3.org/2000/svg" xmlns:xlink="http://www.w3.org/1999/xlink" xml:space="preserve" xmlns:serif="http://www.serif.com/" style="fill-rule:evenodd;clip-rule:evenodd;stroke-linejoin:round;stroke-miterlimit:2;"><path d="M60461.4,42290.6c0,-0 15866.1,-3493.5 30422.2,-17321.8c14556,-13828.1 22707.3,-0 24599.8,2474.59c0,0 -4636.75,-2943.42 -11793.7,-2822.11c-6211.22,97.275 -3639.34,15333.2 6938.44,16691.7l-50166.9,977.588l0.05,0.009l0.075,0.016Z" style="fill:#006c7b;fill-rule:nonzero;"/><path d="M38772.7,42639.4c0,-0 16481.9,-3629.03 31602.5,-17993.8c15120.8,-14364.8 23588.6,0 25554.4,2570.6c0,-0 -4816.44,-3057.61 -12251.5,-2931.72c-6451.78,100.841 -3780.09,15928.1 7208,17339.8l-52113.4,1015.21l0.106,0.012l-0.106,-0.009Z" style="fill:#007a6d;fill-rule:nonzero;"/><path d="M43301.4,43480.3c0,0 12618.2,-2778.51 24194.4,-13775.7c11576.4,-10997.4 18188,1100.03 19693,3068.15c0,-0 -4255.31,-1455.05 -9947.06,-1358.66c-4939.53,77.307 -2455.77,10208.4 5956.78,11289l-39897.2,777.188l0.059,0.04l0.003,0Z" style="fill:#006c7b;fill-rule:nonzero;"/><path d="M49615.2,40974.2c0,-0 12354.8,-2720.52 23689.3,-13488.1c11334.8,-10768 13363.4,-1649.73 14837.1,277.069c0,-0 707.882,-642.138 -4865.13,-547.781c-4836.41,75.653 -2833.93,11939.7 5402.88,12997.6l-39064.1,761.291l0.037,-0.05l-0.1,0.003Z" style="fill:#369da7;fill-rule:nonzero;"/><path d="M11712,37343.8c-0,0 4056.25,84.375 29112.3,-22591.3c24452.8,-23230 38146.3,-0 41325,4157c-0,-0 -7788.97,-4944.75 -19812.1,-4741.03c-10433.6,163.134 -6113.31,25758.2 11656.4,28040.4l-73937.8,1634.86c-0,0 1021.6,-627.036 1376.85,-845.083c80.003,-49.104 161.176,-96.276 243.449,-141.474c1155.58,-634.842 10035.9,-5513.44 10035.9,-5513.44Z" style="fill:#007a6d;fill-rule:nonzero;"/><path d="M22801.7,42435.9c-0,0 14285.7,-3145.59 27391.7,-15596.3c13106.1,-12450.7 20445.2,0 22149,2227.91c0,0 -4174.69,-2649.94 -10618.8,-2540.84c-5592.22,87.481 -3276.56,13805.7 6247.59,15028.9l-45169.7,880.303l-0.028,0.01l0.153,-0.007Z" style="fill:#369da7;fill-rule:nonzero;"/><path d="M53377.7,42571.5c-0,0 7172.16,-1579.28 13751.8,-7830.03c6579.97,-6250.63 10264.6,-0 11119.9,1118.59c0,-0 -2095.79,-1330.44 -5331.03,-1275.63c-2807.62,43.869 -1645.16,6931.03 3136.44,7545.22l-22677.3,441.866l0.056,-0l0.007,-0.013Z" style="fill:#0088a0;fill-rule:nonzero;"/><path d="M9610.56,43551.5c0,0 15857.3,-3491.72 30405.2,-17312.1c14547.8,-13820.3 22694.9,0 24585.8,2473.32c-0,0 -4633.97,-2941.89 -11787,-2820.71c-6207.41,97.275 -3637.06,15324.7 6935,16682.4l-50139.1,977.069l-0.031,0.009l0.063,0Z" style="fill:#006c7b;fill-rule:nonzero;"/><path d="M0.031,43842.8c0,0 20483.3,-4510.13 39275.3,-22362.5c18792,-17852.3 29315.3,0 31758.1,3194.81c-0,-0 -5985.75,-3800.06 -15225.5,-3643.53c-8018.25,125.381 -4698.31,19795.1 8957.66,21549.2l-64765.6,1262.03l0.047,-0.01l-0.016,-0.022Z" style="fill:#0088a0;fill-rule:nonzero;"/><path d="M92938,41725.6c-0,-0 6521.88,-1435.98 12504.7,-7120c5983.22,-5683.78 9333.81,-0 10111.6,1017.26c0,0 -1905.96,-1209.64 -4847.84,-1159.92c-2552.92,39.794 -1495.49,6302.38 2852.13,6861.13l-20620.6,401.563l0.022,-0l-0.025,-0.022Z" style="fill:#ecf8fe;fill-rule:nonzero;"/><path d="M97506.4,41426.5c0,0 5021.81,-1105.5 9628.69,-5482.09c4606.88,-4376.59 7186.75,-0 7785.78,783.165c-0,0 -1467.51,-931.553 -3732.69,-893.281c-1965.71,30.772 -1151.91,4853.06 2196.12,5282.84l-15877.9,309.365l0.04,0Z" style="fill:#369da7;fill-rule:nonzero;"/><path d="M79585.2,42135c0,-0 10235.4,-2253.85 19626.3,-11174.6c9390.25,-8920.91 14648.9,-0 15869.5,1596.46c-0,0 -2991.1,-1899.08 -7608.16,-1820.75c-4006.69,62.687 -2347.94,9891.81 4476.28,10768.4l-32363.8,630.569l-0.069,-0.022l-0.119,-0Z" style="fill:#369da7;fill-rule:nonzero;"/><path d="M62134.8,42420c-0,-0 13205.5,-1448.7 25320.4,-7182.94c12115.1,-5734.38 18899.5,0 20474.5,1026.15c0,0 -3858.97,-1220.58 -9815.81,-1170.35c-5169.44,40.313 -3028.99,6358.34 5775.22,6921.78l-41754.4,405.381l-0.009,-0l0.072,-0.025Z" style="fill:#ecf8fe;fill-rule:nonzero;"/><path d="M66819,17404.1c-102.362,72.988 1802.06,-4735.69 7501.72,-1299.16c-0,-0 1676.56,1089.61 3227.09,-461.191c-0,0 125.753,1257.45 -1047.65,2263.26c-1173.53,1005.8 -3646.09,335.05 -4610.19,-628.662c-963.847,-963.972 -2723.95,-1550.68 -5071,125.753" style="fill:#fff;fill-rule:nonzero;"/><path d="M78294.2,31896.6c-45.554,57.977 232.17,-2962.62 4007.16,-1969.81c-0,-0 1123.42,336.355 1739.93,-792.401c-0,-0 278.4,686.88 -215.865,1446.66c-494.336,759.801 -1996.56,790.6 -2698.24,407.451c-701.588,-383.335 -1788.98,-422.884 -2833,908.097" style="fill:#fff;fill-rule:nonzero;"/><path d="M74142.3,25810.9c38.4,-119.784 1388.93,4873.03 -5234.66,5528.66c-0,-0 -1994.96,129.696 -2309.93,2299.74c0,0 -852.706,-932.175 -514.093,-2440.39c338.625,-1507.82 2721.15,-2449.79 4070.16,-2253.85c1349,195.822 3110.51,-386.806 3988.53,-3134.16" style="fill:#fff;fill-rule:nonzero;"/><path d="M97679.2,41912.5c-0,-0 4458.09,-981.65 8547.97,-4866.94c4090,-3885.66 6380.34,0 6911.97,695.041c0,-0 -1302.47,-826.897 -3313.81,-792.822c-1745.1,27.216 -1022.34,4308.44 1949.94,4690.19l-14096.1,274.531l0.028,-0l-0.003,-0Z" style="fill:#ecf8fe;fill-rule:nonzero;"/><path d="M45654.2,7989.04c-0,0 15817.7,-11753.8 31732.2,1892.22c0,-0 7151.28,3406.41 17662.8,-1127.23c0,-0 -7666.53,2135.08 -21593.1,-7024.13c0,-0 -11935.9,-6695.81 -27802.1,6259.16" style="fill:#fff;fill-rule:nonzero;"/></svg>