<?xml version="1.0" encoding="UTF-8" standalone="no"?><!DOCTYPE svg PUBLIC "-//W3C//DTD SVG 1.1//EN" "http://www.w3.org/Graphics/SVG/1.1/DTD/svg11.dtd"><svg width="100%" height="100%" viewBox="0 0 176777 102380" version="1.1" xmlns="http://www.w3.org/2000/svg" xmlns:xlink="http://www.w3.org/1999/xlink" xml:space="preserve" xmlns:serif="http://www.serif.com/" style="fill-rule:evenodd;clip-rule:evenodd;stroke-linejoin:round;stroke-miterlimit:2;"><path d="M93403.9,63834.5c0,0 17837.8,-13255 35785.2,2133.89c-0,0 8064.64,3841.45 19918.7,-1271.21c0,0 -8645.67,2407.78 -24351,-7921.23c-0,0 -13460.4,-7550.99 -31352.8,7058.57" style="fill:#fff;fill-rule:nonzero;"/><path d="M110102,102517c0,-0 17892.5,-3939.68 34307.7,-19534.1c16415.1,-15594.2 25607.5,0 27741.7,2790.65c0,-0 -5228.97,-3319.34 -13299.9,-3182.54c-7004.5,109.701 -4104.15,17291.5 7824.59,18823.5l-56574.1,1102.43l0.024,-0.014Z" style="fill:#007a6d;fill-rule:nonzero;"/><path d="M85643.3,102910c-0,0 18587,-4092.55 35638.6,-20291.9c17052,-16199.4 26601.3,0 28818.2,2898.91c-0,0 -5431.58,-3448.12 -13816.1,-3306.15c-7275.81,113.715 -4262.89,17962.4 8128.58,19554.3l-58769.4,1144.88l0.048,-0.012Z" style="fill:#006c7b;fill-rule:nonzero;"/><path d="M90750.4,103859c0,-0 14229.7,-3133.35 27284.5,-15535c13054.8,-12402 20510.9,1240.53 22208.1,3460.01c0,0 -4798.77,-1640.89 -11217.5,-1532.19c-5570.4,87.184 -2769.43,11512.2 6717.55,12730.8l-44992.6,876.439l-0.048,0.015Z" style="fill:#006c7b;fill-rule:nonzero;"/><path d="M96030.3,100061c-0,-0 13932.7,-3067.97 26714.9,-15210.8c12782.4,-12143.3 15070.1,-1860.43 16732.1,312.462c-0,-0 798.29,-724.155 -5486.49,-617.753c-5454.1,85.32 -3195.89,13464.5 6092.93,14657.6l-44053.4,858.517l-0,0.005Z" style="fill:#006c7b;fill-rule:nonzero;"/><path d="M44766,103996c-0,-0 15615.6,-6336.83 43191,-32533.5c27575.9,-26196.8 43018,-0 46602.9,4687.91c-0,0 -8783.76,-5576.27 -22342.5,-5346.54c-11766.1,183.978 -6894.08,29048 13145.2,31621.8l-72605.8,1513.82l-7990.73,56.483Z" style="fill:#0088a0;fill-rule:nonzero;"/><path d="M67632.7,102681c-0,0 16110.2,-3547.36 30890.1,-17588.2c14779.9,-14040.8 23056.5,-0 24977.8,2512.46c-0,0 -4707.86,-2988.38 -11974.9,-2865.37c-6306.44,98.658 -3695.06,15568.9 7045.51,16948.3l-50938.6,992.735l0.12,0.005Z" style="fill:#369da7;fill-rule:nonzero;"/><path d="M102223,102402c-0,0 8088.15,-1780.99 15508.2,-8830.08c7420.36,-7048.95 11575.5,-0 12540.2,1261.46c0,0 -2363.46,-1500.36 -6011.91,-1438.56c-3166.2,49.473 -1855.27,7816.26 3537.01,8508.87l-25573.6,498.305l0.097,0.007Z" style="fill:#0088a0;fill-rule:nonzero;"/><path d="M52756.8,103939c-0,-0 17882.6,-3937.68 34288.5,-19523.2c16405.9,-15585.4 25593.3,-0 27725.8,2789.21c-0,-0 -5225.79,-3317.63 -13292.4,-3180.97c-7000.19,109.698 -4101.57,17281.9 7820.72,18813.1l-56542.6,1101.86l0.049,0.005Z" style="fill:#007a6d;fill-rule:nonzero;"/><path d="M41918.8,104268c0,0 23099.4,-5086.13 44291.4,-25218.7c21192,-20132.3 33059.3,-0 35814.3,3602.85c0,-0 -6750.25,-4285.41 -17170,-4108.89c-9042.32,141.389 -5298.37,22323.3 10101.7,24301.4l-73037.2,1423.21l-0.193,0.11Z" style="fill:#007a6d;fill-rule:nonzero;"/><path d="M146727,101880c0,0 7354.81,-1619.38 14101.8,-8029.37c6747.39,-6409.69 10525.9,0 11403.1,1147.17c0,0 -2149.37,-1364.13 -5467,-1308.07c-2878.98,44.882 -1686.49,7107.32 3216.4,7737.41l-23254.2,452.845l0,0.002Z" style="fill:#ecf8fe;fill-rule:nonzero;"/><path d="M158401,102436c0,0 5663.16,-1246.69 10858.4,-6182.27c5195.26,-4935.57 8104.64,-0 8780.18,883.179c0,0 -1654.94,-1050.52 -4209.4,-1007.36c-2216.77,34.701 -1299.03,5472.87 2476.61,5957.57l-17905.8,348.884l0,-0.003Z" style="fill:#369da7;fill-rule:nonzero;"/><path d="M131668,102341c-0,0 11542.7,-2541.72 22132.9,-12601.9c10589.6,-10060.3 16519.9,0 17896.3,1800.35c-0,0 -3373.12,-2141.63 -8579.85,-2053.3c-4518.44,70.695 -2647.81,11155.1 5047.99,12143.7l-36497.4,711.103l0.096,0.007Z" style="fill:#369da7;fill-rule:nonzero;"/><path d="M111989,102663c0,-0 14892,-1633.72 28554.3,-8100.33c13662.4,-6466.77 21313.4,-0 23089.5,1157.21c-0,-0 -4351.81,-1376.46 -11069.5,-1319.82c-5829.65,45.457 -3415.85,7170.42 6512.8,7805.8l-47087.1,457.15l0.024,-0.007Z" style="fill:#ecf8fe;fill-rule:nonzero;"/><path d="M116081,74885c-115.435,82.312 2032.22,-5340.53 8459.83,-1465.08c0,-0 1890.69,1228.77 3639.25,-520.099c0,0 141.82,1418.05 -1181.44,2552.31c-1323.41,1134.27 -4111.75,377.85 -5198.99,-708.952c-1086.95,-1087.09 -3071.85,-1748.72 -5718.65,141.818" style="fill:#fff;fill-rule:nonzero;"/><path d="M125530,83932.6c43.304,-135.08 1566.32,5495.4 -5903.21,6234.75c-0,0 -2249.75,146.265 -2604.96,2593.48c-0,-0 -961.62,-1051.24 -579.753,-2752.08c381.864,-1700.4 3068.7,-2762.69 4589.98,-2541.72c1521.3,220.83 3507.77,-436.213 4497.94,-3534.43" style="fill:#fff;fill-rule:nonzero;"/><path d="M152073,102091c0,-0 5027.49,-1107.02 9639.7,-5488.51c4612.36,-4381.91 7195.22,-0 7794.75,783.806c0,0 -1468.81,-932.51 -3737.07,-894.079c-1967.98,30.687 -1152.91,4858.71 2198.99,5289.2l-15896.4,309.594l0.002,-0.007Z" style="fill:#ecf8fe;fill-rule:nonzero;"/><path d="M108618,70017l-19.337,1.191c119.379,57.188 3458.57,1001.5 3582.44,1048.18c4583.68,1268.82 9483.95,2582.63 9232.61,2513.66c742.87,203.847 1494.09,377.466 2233.22,594.484c304.302,89.348 773.349,226.822 1071.39,382.844c101.464,53.117 193.767,123.043 282.999,194.833c317.946,255.791 -165.524,605.474 -393.262,676.332c-139.284,43.337 -285.031,62.32 -426.773,96.771c-438.405,106.553 -874.883,220.977 -1313.6,326.226c-731.289,175.44 -1465.34,305.585 -2217.53,351.348c-1382.86,84.136 -2781.39,-37.637 -4152.66,-204.942c-3242.24,-395.57 -6406.56,-1376.3 -9558.28,-2169.14c-1158.99,-347.442 -2318,-694.889 -3475.22,-1048.2c-95.224,-29.073 -189.303,-62.167 -281.849,-98.882c-881.307,-349.615 -1760.39,-704.815 -2639.46,-1060.01c-789.712,-390.467 -1525.9,-891.914 -2203.09,-1453.82c-450.415,-373.739 -891.505,-748.057 -1247.14,-1215.26c-105.071,-138.032 -245.998,-335.076 -244.645,-524.511c4.836,-676.457 719.373,-1121.39 1350.02,-997.786l2365.39,469.015c-0,-0 4324.37,1061.65 5055.86,1291.18c588.844,158.395 1313.66,352.118 2201.13,591.431c179.767,48.482 550.543,206.667 778.448,236.25l-1.369,-1.304c0.686,-0.997 7.818,-0.927 20.706,0.113l-0,-0.01Z" style="fill:url(#_Linear1);stroke:#000;stroke-width:103.64px;"/><path d="M87773.1,57977.9c-858.625,629.152 -1052,758.726 -642.785,1266.33c151.021,187.335 817.711,185.256 967.527,-2.859c46.761,-58.713 -13.365,-178.012 249.761,-246.255c656.458,-170.238 545.181,-714.654 772.858,-813.606" style="fill:#f2d3e1;fill-rule:nonzero;"/><path id="leg-left" d="M102161,59707.5c-221.472,275.559 -434.003,558.286 -643.57,843.006c-198.319,269.435 -388.835,544.549 -579.883,819.186c-52.438,75.38 -98.727,153.3 -114.491,245.762c-26.219,153.789 77.403,288.358 180.154,388.325c264.445,257.279 590.632,470.58 814.35,770.355c102.58,137.455 205.504,275.904 288.89,425.782c218.705,393.099 -144.284,762.366 147.934,1109.57c192.383,228.581 514.107,267.541 719.14,479.047c117.829,121.552 184.536,285.257 295.894,412.761c210.532,241.06 240.8,204.436 451.936,429.165c291.457,310.222 475.115,710.472 602.817,1111.4c23.673,74.326 27.049,266.492 4.916,341.376c-14.452,48.898 -28.962,89.986 -44.779,126.054c-183.167,459.137 -363.064,1024.34 -353.727,1486.06c1.364,76.943 143.506,47.488 135.462,134.331c-5.566,60.063 -18.947,105.196 7.289,163.207c37.947,84.391 34.869,137.972 0.373,235.323c-35.065,98.393 -238.873,192.549 -196.777,285.6c198.341,441.021 -269.195,642.05 -849.287,627.025c-865.507,-22.884 -1395.59,-46.858 -2199.37,-331.164c-754.669,-266.951 -315.434,-916.198 -44.117,-1283.26c131.068,-177.245 475.854,-224.615 652.899,-386.357c229.183,-210.153 635.606,-390.479 792.566,-628.244c27.927,-42.26 46.068,-189.015 59.163,-196.816c15.068,-127.124 8.603,-283.909 -1.275,-434.213l0.007,0c-107.179,-180.34 -273.145,-369.575 -342.805,-493.981c-58.99,-105.347 -123.272,-207.643 -185.651,-311.02c-65.877,-109.169 -126.462,-221.824 -199.115,-326.604c-367.708,-530.308 -1085.73,-777.278 -1605.86,-1084.55c-465.257,-274.849 -814.249,-706.41 -1251.2,-1019.89c-294.954,-211.607 -316.098,-174.093 -594.684,-401.928c-275.617,-225.407 -466.149,-540.547 -502.049,-898.495c-20.393,-203.332 16.885,-248.214 73.474,-438.573c1807.98,-7799 6412.94,-7345.69 4481.38,-2198.24Zm-3133.11,-13581.3c-7.007,-0.525 9.251,-4.382 1.259,0.054l-1.259,-0.054Z"/><path id="leg-right" d="M107121,60273.1c-43.005,995.904 -9.505,1995.2 204.597,2971.41c41.172,187.729 209.812,242.462 360.369,327.383c287.983,162.439 491.399,252.049 726.636,448.085c715.725,596.46 1118.02,1414.24 1590.18,2198.88c288.993,480.253 577.022,961.175 872.834,1437.33c0,-0 508.546,713.774 590.577,857.85c99.483,174.635 198.979,349.221 298.525,523.809c123.965,188.339 373.959,597.014 345.3,606.304c121.513,213.564 243.503,420.336 399.303,620.501c242.561,311.084 461.604,408.685 734.754,667.391c145.391,137.842 552.581,436.114 585.928,594.375c46.795,221.069 -58.288,592.605 107.631,679.687c456.281,361.978 -263.61,493.85 -541.744,482.623c-410.431,-16.568 -899.342,-91.124 -1292.59,-228.447c-804.867,-281.146 -577.186,-617.705 -1273.41,-1052.6c-341.944,-213.551 -985.719,-472.701 -1238.79,-781.92c-152.612,-186.714 -126.769,-296.481 80.079,-410.732c92.936,-51.331 1.191,-349.49 29.017,-475.395c22.937,-103.788 -33.811,-334.007 17.978,-337.607c-33.33,-377.93 -215.717,-770.113 -275.55,-1160.78c-43.941,-52.917 -91.574,-101.51 -143.874,-143.685c-120.084,-96.829 -254.076,-175.144 -377.61,-267.532c-505.697,-378.192 -1048.28,-765.619 -1482.05,-1228.38c-232.676,-248.224 -355.089,-624.895 -638.594,-821.169c-258.404,-178.896 -521.463,-351.213 -788.143,-517.524c-162.48,-101.324 -482.757,-242.487 -644.908,-402.195c-250.475,-246.703 -419.992,-674.621 -520.611,-1001.3c-222.635,-722.836 -183.398,-1487.21 -212.415,-2232.12c-154.315,-7362.03 2751.82,-10519.7 2486.59,-1354.23Z"/><path d="M89104.3,58194.4c446.873,-194.193 825.864,-487.987 1211.65,-781.15c738.782,-561.41 754.606,-368.678 1975.49,-1395.6c377.98,-317.941 808.646,-574.555 1061.86,-1030.82c243.844,-439.355 659.471,-749.599 940.99,-1164.6c85.518,-126.059 197.011,-229.438 303.708,-338.392c1569.4,-1602.7 685.96,-843.606 1465.73,-1700.55c59.794,-65.702 132.327,-92.436 224.717,-61.724l-967.869,-3058.52c-252.969,244.468 -518.498,471.441 -783.21,702.128c-643.58,560.89 -803.875,1766.73 -996.814,2068.92c-132.36,207.285 -743.08,1320.31 -1393.46,1741.99c-1272.39,824.959 -1438.66,1620.37 -2007.03,2282.63c-489.693,570.568 -1991.32,2245.01 -2383.12,2532.09c0,-0 108.05,38.358 155.817,55.315c14.78,5.246 30.156,8.632 45.77,10.08c76.848,7.118 317.848,29.446 356.283,33.008c3.461,0.32 6.909,0.765 10.335,1.33l547.904,90.496c7.028,1.16 14.117,1.93 21.233,2.305c44.138,2.33 210.018,11.076 210.018,11.076l0,-0.004Z" style="fill-rule:nonzero;"/><path id="corpo" d="M104634,61627.3c-38.234,-981.488 -39.006,-978.75 -160.069,-1956.17c-57.953,-467.923 -152.037,-884.525 -480.669,-1239.61c-70.902,-76.611 -276.471,-283.735 -407.422,-347.399c-382.04,-185.732 -495.819,350.657 -625.665,595.488c-212.314,400.335 -519.068,678.94 -799.498,1027.86c-1493.79,2054.74 -2987.59,3165.2 -4481.38,2198.24c256.73,-863.6 507.976,-1728.84 768.474,-2591.31c268.785,-889.919 533.727,-1802.36 922.031,-2651.54c87.115,-190.516 182.868,-377.215 284.907,-560.171c219.319,-393.234 463.209,-772.54 678.842,-1167.81c26.731,-49.004 45.987,-105.179 46.066,-160.998c0.075,-50.698 -83.888,-93.008 -116.217,-109.06c-485.19,-240.904 -532.358,-236.929 -992.639,-521.35c-312.31,-192.985 -552.504,-481.723 -822.338,-724.027c-281.503,-252.781 -630.423,-413.972 -938.577,-628.189c-116.855,-81.234 -215.308,-187.513 -334.34,-265.525c-513.994,-336.862 -743.379,-437.587 -1321.17,-643.469l-4.273,-1.557c-449.686,137.847 -1652.17,-1941.14 -1567.69,-2047.06c168.101,-210.736 1322.11,-1874.24 1446.41,-2113.44c28.332,-54.522 40.621,-44.443 42.164,-22.119l-42.164,22.119c25.426,64.373 44.323,9.13 42.164,-22.119c-0,-0 3003.94,-1676.88 3032.02,-1590.64l114.501,77.025l-114.501,-77.025l124.127,14.461l100.471,4.247c0.357,0.027 0.775,0.046 1.259,0.054c76.98,1.26 3155.03,975.749 3231.94,972.397c592.234,-25.803 903.854,1253.41 1409.65,1995.7c-2.789,4.248 -4.706,8.793 -5.845,13.608l6.769,-12.246l-0.924,-1.362c9.354,-14.247 8.088,-11.583 0.924,1.362c41.588,61.294 63.902,112.151 63.762,150.411c34.052,39.338 70.233,75.042 83.884,95.359c282.612,420.615 388.017,623.039 697.822,950.952c431.874,457.121 969.763,792.642 1431.07,1217.14c654.218,602.008 1096.01,1368.29 1303.14,2233.15c162.701,679.328 216.951,1351.72 180.171,2048.45c-24.145,457.4 -154.441,1487.21 -175.294,1799.7c-59.608,893.23 -96.682,1787.86 -135.303,2682.25c-311.272,2944.69 -2384.35,2419.16 -2486.59,1354.23Z"/><path d="M111281,50253.2c234.609,230.985 689.506,311.245 981.596,457.393c752.72,376.626 1713.52,213.713 705.824,-118.538c-215.688,-71.116 128.306,-118.07 455.165,-60.013c810.117,143.903 655.524,203.786 802.994,156.139c383.767,-123.994 -545.059,-346.116 -846.202,-550.281c364.534,-96.918 1048.91,484.572 1206.99,163.2c153.745,-312.577 -1101.24,-671.733 -1311.41,-708.985c190.049,-29.889 360.809,19.837 529.428,88.92c141.976,58.176 744.538,320.573 795.742,173.984c43.801,-125.368 -89.428,-218.414 -212.096,-262.435c-332.049,-119.152 -664.223,-237.414 -1021.11,-262.346c-94.847,-6.62 -196.144,-6.033 -285.187,-92.267c57.684,-55.496 121.374,-46.1 182.749,-54.986c421.512,-61.19 894.741,128.939 924.449,-20.316c75.387,-378.715 -1049.04,-337.606 -1421.98,-351.517c-328.18,-12.236 -657.202,-35.687 -982.321,90.86l-504.626,1351.19Z" style="fill:#f2d3e1;"/><path d="M103659,49150.4c46.492,-63.73 129.988,-22.847 196.832,-18.136c2280.12,160.481 2318.76,-63.293 3268.18,213.123c404.823,117.858 794.964,301.429 1227.19,297.314c936.895,-8.917 1834.63,179.26 2702.1,522.849c71.267,28.224 152.663,12.376 218.463,66.696c3.287,2.772 7.618,3.968 11.86,3.277c4.245,-0.693 7.972,-3.203 10.208,-6.875l35.093,-57.082l120.519,-197.97l186.777,-635.524l118.712,-235.384l59.298,-198.87c-140.157,52.529 -363.441,130.57 -471.782,-111.433c-0,-0 -1451.31,-268.737 -3589.73,-1182.57c-560.859,-239.662 -1170.48,-185.513 -1747.68,-338.724c-1462.98,-388.318 -1532.36,-254.42 -3322.73,-802.424c-1227.02,-375.567 -1375.2,-418.192 -3688.92,-355.554" style="fill-rule:nonzero;"/><path d="M101000,37275.5l86.539,5.775c0,0 -87.757,1.24 -86.539,-5.775c-0,0 165.844,10.441 165.377,12.881c2565.32,-31.924 557.762,6427.74 -640.064,4527.39c-0,-0.003 -511.52,1971.27 -773.356,2978.99c-99.789,384.562 -283.488,742.286 -537.874,1047.44c-3283.87,3944.47 -5508.39,5984.26 -8178.39,3604.34c-747.488,-666.259 -2165.92,-2043.42 -3010.9,-3444.25c-168.09,-289.054 -291.732,-601.711 -366.823,-927.52c-333.572,-1443.22 -681.768,-2894.07 -977.501,-4339.65c-247.42,-1209.77 -444.36,-2413.15 -664.791,-3624.82c-11.575,-63.567 -23.183,-127.187 -34.906,-190.793c-28.604,-174.552 160.685,-362.036 139.004,-526.271c-212.446,-1607.17 -297.362,-2782.54 384.632,-5178.39c8046.98,-3125.46 12963,-2293.65 14495.6,6060.68l-0.031,0.017l-0.005,-0.027l0.02,-0.029Z" style="fill:#f2d3e1;stroke:#000;stroke-width:88px;stroke-linecap:round;stroke-miterlimit:1.5;"/><path id="mouth" d="M89400,44146.7c337.206,-347.004 665.956,-737.533 1096.83,-814.113c2072.67,-368.32 4304.64,-184.686 5291.12,161.909c-1611.95,2957.19 -3668.8,3558.18 -6387.96,652.204l0.01,0Z" style="fill:#513132;stroke:#000;stroke-width:88px;stroke-linecap:round;stroke-miterlimit:1.5;"/><path d="M99266.8,36984c-0.003,-0.005 11.884,43.08 11.639,107.905c-0.922,236.873 99.478,462.812 275.884,620.915c176.398,158.055 411.988,233.175 647.338,206.398l0.171,-0.02c20.297,-2.336 36.775,-17.553 40.649,-37.612c116.561,-680.834 463.71,-578.68 900.228,-594.039c-137.17,-130.005 -1104.25,-215.296 -1875.91,-303.552l0.007,0.005l-0.002,-0Z" style="fill:#512b18;stroke:#000;stroke-width:93.75px;stroke-linecap:round;stroke-miterlimit:1.5;"/><path id="cheek-right-small" d="M97038.6,43193.6c138.184,776.989 90.104,1341.81 -64.101,2026.73" style="fill:none;stroke:#000;stroke-width:31.14px;stroke-linecap:round;stroke-miterlimit:1.5;"/><path id="cheek-right" d="M94122.6,40204.3c2637.59,2001.06 2815.94,3690.7 1909.64,5891.18" style="fill:none;stroke:#000;stroke-width:30.58px;stroke-linecap:round;stroke-miterlimit:1.5;"/><path id="cheek-left" d="M89655.3,40624.2c-1225.34,2123.18 -1089.2,3897.14 296.746,5720.58" style="fill:none;stroke:#000;stroke-width:30.58px;stroke-linecap:round;stroke-miterlimit:1.5;"/><path id="teeth-top" d="M95395.3,43976.6c-1773.11,206.886 -3514.49,374.809 -5171.77,439.606c-606.241,-397.734 -316.146,-498.242 24.949,-621.49c131.884,-89.353 330.86,-145.415 668.788,-300c62.97,-28.473 130.255,-46.338 199.063,-52.813c1573.03,-147.162 3128.83,-113.957 4671.84,52.488c-216.876,435.412 -323.401,517.912 -392.865,482.209l-0.003,0Z" style="fill:#fff;stroke:#000;stroke-width:88px;stroke-linecap:round;stroke-miterlimit:1.5;"/><path id="teeth-bottom" d="M91623.9,45797c774.294,25.656 1715.31,-81.98 2396.33,-244.658c-580.576,470.409 -1485.91,680.057 -2396.33,244.658Z" style="fill:#fff;stroke:#000;stroke-width:93.75px;stroke-linecap:round;stroke-linejoin:bevel;stroke-miterlimit:1.5;"/><path id="eyebrow-right" d="M93677.7,35449.1c0,0 219.457,-234.498 246.253,-235.359c89.976,-2.9 172.163,41.472 301.48,2.375c269.493,-81.461 197.196,-156.984 548.288,-209.271c119.574,-17.775 261.86,126.552 291.765,123.496c108.835,-11.112 96.466,-60.186 288.111,-32.516c221.09,31.873 444.449,125.387 651.47,203.738c140.513,53.213 426.955,7.072 530.205,91.191c27.636,22.511 257.858,250.649 202.314,318.865c-31.954,39.185 -767.976,24.306 -844.72,-38.204c-66.503,-54.185 -92.815,-92.291 -193.502,-130.424c-125.902,-47.654 -427.798,43.701 -564.692,57.662c-257.216,26.275 -1540.53,298.111 -1661.36,199.662c-69.364,-56.528 207.622,-319.574 204.395,-351.222l0,0.007l-0.005,0Z" style="fill:#512b18;stroke:#000;stroke-width:134.03px;stroke-linecap:round;stroke-miterlimit:1.5;"/><path id="eyebrow-left" d="M89172.2,36005.9c-0.002,0 -264.404,-182.265 -290.798,-177.392c-88.506,16.375 -159.328,77.237 -294.035,66.65c-280.638,-22.083 -226.129,-111.299 -580.313,-87.45c-120.625,8.119 -228.791,179.505 -258.694,182.907c-108.689,12.366 -107.08,-38.214 -288.435,29.677c-209.183,78.33 -407.436,217.341 -592.956,338.082c-125.912,81.97 -428.481,-106.135 -511.392,-1.932c-22.194,27.891 -180.109,288.632 -111.263,343.414c39.557,31.476 749.972,75.305 811.597,-2.14c53.42,-67.14 71.008,-109.984 161.229,-168.686c112.814,-73.435 427.269,-48.611 564.006,-64.168c256.879,-29.227 1568.63,-37.483 1665.69,-159.451c55.71,-70.016 -271.04,-267.912 -274.635,-299.511Z" style="fill:#512b18;stroke:#000;stroke-width:134.03px;stroke-linecap:round;stroke-miterlimit:1.5;"/><path id="glasses" d="M101243,36649.9l-3664.9,-1088.02c-2078.14,-326.103 -3686.32,-296.027 -5273.66,334.424c-520.555,93.22 -1111.2,348.465 -1660.55,188.928c-1570,-61.534 -3100.87,-93.372 -4739.31,362.156c52.845,1199.31 238.485,2327.17 773.76,3266.83c96.425,166.484 262.818,280.576 452.857,310.495c2400.76,381.087 3449.23,-777.631 3961.72,-3105.27l961.379,-109.378c219.273,1191.65 533.602,2028.14 1162.32,2435.07c307.156,198.827 787.125,258.513 1178.71,277.782c622.231,30.649 1345.52,-162.167 2152.32,-568.241c814.817,-612.678 759.491,-1269.56 887.586,-2314.18l2439.26,430.719c1705.24,298.958 1970.56,-141.94 1368.5,-421.282l0,-0.007l0.01,-0.034Z" style="fill:#4d4d4d;"/><path id="glasses1" serif:id="glasses" d="M101243,36649.9l-3664.9,-1088.02c-2078.14,-326.103 -3686.32,-296.027 -5273.66,334.424c-520.555,93.22 -1111.2,348.465 -1660.55,188.928c-1570,-61.534 -3100.87,-93.372 -4739.31,362.156c52.845,1199.31 238.485,2327.17 773.76,3266.83c96.425,166.484 262.818,280.576 452.857,310.495c2400.76,381.087 3449.23,-777.631 3961.72,-3105.27l961.379,-109.378c219.273,1191.65 533.602,2028.14 1162.32,2435.07c307.156,198.827 787.125,258.513 1178.71,277.782c622.231,30.649 1345.52,-162.167 2152.32,-568.241c814.817,-612.678 759.491,-1269.56 887.586,-2314.18l2439.26,430.719c1705.24,298.958 1970.56,-141.94 1368.5,-421.282l0,-0.007l0.01,-0.034Z" style="fill:none;stroke:#000;stroke-width:88px;stroke-linecap:round;stroke-miterlimit:1.5;"/><path d="M92094.1,37159.6c-29.02,432.25 -100.065,1093.53 841.623,2194.84c41.496,48.514 168.067,174.327 219.634,211.973c280.709,204.797 266.788,382.747 301.699,635.237c45.917,346.668 -22.268,650.378 -365.961,714.621c-470.163,86.624 -854.292,222.217 -1202.41,433.073c-435.245,263.648 -783.664,2.959 -1456.44,-95.306c-270.039,-72.791 -461.821,-319.022 -464.706,-598.715c-6.009,-356.15 43.852,-693.472 363.836,-1086.69c53.081,-65.059 94.977,-138.451 124.037,-217.252c412.516,-1108.28 555.994,-1768.69 570.027,-2247.25" style="fill:none;stroke:#000;stroke-width:42.33px;stroke-linecap:round;stroke-miterlimit:1.5;"/><path d="M86010.8,30973.7c-91.613,-106.521 -114.304,-252.348 -49.354,-443.431c86.718,-255.229 -301.498,-578.083 -166.946,-689.249c185.6,-153.365 1033.27,-252.023 1086.43,-566.242l-23.829,-18.023c-4.628,-197.155 323.675,-163.091 222.413,-379.414c-57.067,-121.932 -2187.42,-1038.34 -2256.63,-1159.72c-299.242,-524.664 1461.41,-437.859 1600.89,-713.3c175.239,-346.119 1864.58,147.696 2204.8,-73.796c180.91,-117.767 -1275.12,-662.049 -1051.3,-747.45c281.466,-107.381 1987.8,395.801 2332.41,336.111c783.441,-135.665 -2136.53,-929.595 -1070.73,-852.001c454.402,33.091 756.632,104.228 2069.79,295.699c456.243,66.508 -190.006,-562.004 299.863,-476.778c628.889,109.443 4232.33,978.589 4908.36,1123.6c1825.48,825.64 3230.66,1987.25 4131.58,3501.78c953.157,1602.27 1336.92,2191.63 1061.78,4603.89l-140.771,1875.09l-1146.31,-312.217l-321.659,-140.458l-359.527,-47.623c0,0.003 -32.964,-636.327 -48.378,-930.609c-5.01,-96.875 -23.777,-192.53 -55.687,-284.123c-165.692,-484.644 -286.75,-916.184 -819.114,-1150.93c-293.57,-131.747 -499.63,-404.166 -546.466,-722.519c-177.32,-1179.11 -1217.16,-1774.25 -2100.54,-2614.08c-117.297,-113.637 -392.557,-179.476 -554.231,-202.525c-1497.82,-214.355 -3159.73,-293.498 -5601.27,432.788c-22.728,6.781 -45.299,14.183 -67.595,22.186c-1208.68,431.826 -2491.45,822.074 -3148.25,636.712c-4.736,620.227 -90.248,1161.15 -325.504,1807.61l-64.215,-2110.96l0.012,-0.002l-0.021,-0.008Z" style="fill:#512b18;stroke:#000;stroke-width:88px;stroke-linecap:round;stroke-miterlimit:1.5;"/><path d="M96417.5,28591.1c-1542.56,-1587.68 -3063.93,-2644.37 -5444.28,-2601.83" style="fill:none;stroke:#000;stroke-width:28.61px;stroke-linecap:round;stroke-miterlimit:1.5;"/><path d="M91671.1,28584.6c-274.512,-374.99 -655.277,-687.509 -1136.88,-940.74c-515.695,-271.154 -1437.41,-498.811 -2177.71,-637.911" style="fill:none;stroke:#000;stroke-width:28.61px;stroke-linecap:round;stroke-miterlimit:1.5;"/><path d="M89772.3,26557.3c1672.05,-295.211 3442.42,845.133 4270.95,1642.4" style="fill:none;stroke:#000;stroke-width:28.61px;stroke-linecap:round;stroke-miterlimit:1.5;"/><path d="M87070.7,28849.2c849.789,163.615 1445.68,492.469 1807.66,973.54" style="fill:none;stroke:#000;stroke-width:28.61px;stroke-linecap:round;stroke-miterlimit:1.5;"/><path d="M90249.5,36532.8c-1259.53,-182.621 -2470.88,-254.352 -3703.81,179.914c-119.07,42.711 -195.766,158.837 -188.249,285.102c53.285,878.896 206.155,1704.52 588.483,2406.61c97.888,177.05 273.141,297.983 473.441,326.591c1919.76,279.236 2764.23,-670.559 3179.46,-2556.45c-9.312,-481.728 -89.56,-622.814 -349.295,-641.756l-0.012,-0.005l-0.012,-0.007Z" style="fill:url(#_Linear2);stroke:#000;stroke-width:88px;stroke-linecap:round;stroke-miterlimit:1.5;"/><path d="M92541.7,37004.3c178.972,972.65 435.539,1655.38 948.726,1987.57c250.712,162.278 642.459,210.983 962.091,226.735c507.861,25.016 1098.25,-132.373 1756.8,-463.823c665.07,-500.066 619.88,-1036.27 724.429,-1888.91c-0,0 41.843,-315.787 75.403,-569.105c23.079,-174.102 -98.79,-334.157 -272.768,-358.193c-1546.47,-214.228 -2775.95,-162.5 -3990.5,319.904c-163.604,172.57 -253.717,403.625 -204.167,745.821l-0.005,0.005l-0.009,0Z" style="fill:url(#_Linear3);stroke:#000;stroke-width:88px;stroke-linecap:round;stroke-miterlimit:1.5;"/><defs><linearGradient id="_Linear1" x1="0" y1="0" x2="1" y2="0" gradientUnits="userSpaceOnUse" gradientTransform="matrix(28258.6,0,0,8820.51,96848.2,71820)"><stop offset="0" style="stop-color:#cab32d;stop-opacity:1"/><stop offset="1" style="stop-color:#19c341;stop-opacity:1"/></linearGradient><linearGradient id="_Linear2" x1="0" y1="0" x2="1" y2="0" gradientUnits="userSpaceOnUse" gradientTransform="matrix(4241.89,0,0,3389.42,85565.1,37364.5)"><stop offset="0" style="stop-color:#575757;stop-opacity:1"/><stop offset="0.53" style="stop-color:#434343;stop-opacity:1"/><stop offset="1" style="stop-color:#000;stop-opacity:1"/></linearGradient><linearGradient id="_Linear3" x1="0" y1="0" x2="1" y2="0" gradientUnits="userSpaceOnUse" gradientTransform="matrix(10655.1,0,0,3960.73,86356.9,37798.6)"><stop offset="0" style="stop-color:#fff;stop-opacity:1"/><stop offset="1" style="stop-color:#000;stop-opacity:1"/></linearGradient></defs></svg>